<svg width="722" height="722" viewBox="0 0 722 722" fill="none" xmlns="http://www.w3.org/2000/svg">
<g clip-path="url(#clip0_4061_7)">
<path d="M614.186 105.86C548.223 37.8963 457.039 1 363.915 1C166.029 1 6.94131 162.173 8.87984 358.299C8.87984 420.438 26.3405 480.638 55.4435 535.008L5 719.483L193.188 670.937C245.57 700.067 303.77 713.66 361.976 713.66C557.924 713.66 717.011 552.484 717.011 356.361C717.011 261.209 680.146 171.883 614.186 105.86ZM363.915 653.463C311.533 653.463 259.151 639.873 214.528 612.686L202.889 606.86L90.3649 635.987L119.465 525.303L111.705 513.65C26.3405 375.781 67.0831 193.243 206.769 107.8C346.454 22.36 526.882 63.1396 612.247 202.952C697.609 342.765 656.867 523.358 517.184 608.8C472.559 637.927 418.238 653.46 363.915 653.46V653.463ZM534.642 437.92L513.301 428.211C513.301 428.211 482.262 414.617 462.86 404.908C460.919 404.908 458.981 402.964 457.039 402.964C451.218 402.964 447.338 404.908 443.458 406.851C443.458 406.851 441.52 408.791 414.358 439.861C412.417 443.744 408.537 445.687 404.657 445.687H402.716C400.777 445.687 396.898 443.744 394.956 441.804L385.255 437.92C363.915 428.211 344.516 416.558 328.993 401.024C325.114 397.141 319.292 393.257 315.413 389.374C301.832 375.781 288.251 360.245 278.553 342.768L276.611 338.885C274.673 336.941 274.673 335.001 272.731 331.118C272.731 327.234 272.731 323.351 274.673 321.408C274.673 321.408 282.432 311.698 288.251 305.874C292.133 301.988 294.072 296.165 297.952 292.281C301.832 286.455 303.773 278.688 301.832 272.862C299.893 263.152 276.611 210.722 270.793 199.072C266.91 193.245 263.033 191.305 257.212 189.362H235.872C231.989 189.362 228.112 191.305 224.229 191.305L222.288 193.245C218.408 195.188 214.528 199.072 210.648 201.012C206.769 204.898 204.827 208.779 200.947 212.665C187.367 230.142 179.607 251.502 179.607 272.862C179.607 288.395 183.487 303.931 189.308 317.525L191.249 323.351C208.71 360.244 231.989 393.257 263.033 422.384L270.793 430.151C276.611 435.977 282.432 439.861 286.312 445.684C327.055 480.64 373.616 505.884 425.998 519.477C431.819 521.417 439.579 521.417 445.4 523.36H464.799C474.5 523.36 486.14 519.477 493.902 515.594C499.72 511.71 503.6 511.71 507.48 507.827L511.363 503.941C515.243 500.057 519.122 498.117 523.002 494.234C526.882 490.35 530.762 486.467 532.703 482.581C536.583 474.814 538.522 465.104 540.463 455.397V441.804C540.463 441.804 538.522 439.861 534.642 437.92Z" fill="#4A4A4A"/>
</g>
<defs>
<clipPath id="clip0_4061_7">
<rect width="712" height="721" fill="white" transform="translate(5 1)"/>
</clipPath>
</defs>
</svg>
